# xmcd
#
# Track frame offsets: 
#        150
#        22892
#        34837
#        64095
#        98475
#        119055
#        146375
#        162717
#        184357
#        188937
#        214322
#        243295
#        267760
#
# Disc length: 3833 seconds
#
# Revision: 1
# Processed by: cddbd v1.5.1PL0 Copyright (c) Steve Scherf et al.
# Submitted via: ExactAudioCopy v0.95b2
#
DISCID=bd0ef70d
DTITLE=Count Basie (1904-4984) - Roulette Live Recordings CD 5 (Sweden
DTITLE=1962) 
DYEAR=1962
DGENRE=Jazz
TTITLE0=Corner Pocket
TTITLE1=Little Pony
TTITLE2=The Elder
TTITLE3=The Diplomat Speaks
TTITLE4=Li'l Darlin'
TTITLE5=In A Mellowtone
TTITLE6=Jumpin' at the Woodside
TTITLE7=Back to the Apple
TTITLE8=One O'Clock Jump
TTITLE9=Easy Money
TTITLE10=Four, Five, Six
TTITLE11=Ours Alone
TTITLE12=Mama Dev Blues
EXTD=
EXTT0=
EXTT1=
EXTT2=
EXTT3=
EXTT4=
EXTT5=
EXTT6=
EXTT7=
EXTT8=
EXTT9=
EXTT10=
EXTT11=
EXTT12=
PLAYORDER=
